<svg width="1280" height="337" viewBox="0 0 1280 337" fill="none"
  xmlns="http://www.w3.org/2000/svg">
  <g clip-path="url(#clip0_326_19)">
    <path
      d="M1241.49 259V91.3047H1280.88V259H1241.49ZM1261.1 67.2578C1254.99 67.2578 1249.82 65.1484 1245.6 60.9297C1241.38 56.7109 1239.27 51.6484 1239.27 45.7422C1239.27 39.7305 1241.38 34.668 1245.6 30.5547C1249.82 26.3359 1254.99 24.2266 1261.1 24.2266C1267.33 24.2266 1272.55 26.3359 1276.77 30.5547C1280.98 34.668 1283.09 39.7305 1283.09 45.7422C1283.09 51.6484 1280.98 56.7109 1276.77 60.9297C1272.55 65.1484 1267.33 67.2578 1261.1 67.2578Z"
      fill="#161616" />
    <path
      d="M1155.09 259V121.68H1132.16V91.3047H1155.09V75.3262C1155.09 58.9785 1159.16 46.9023 1167.28 39.0977C1175.5 31.293 1188.74 27.3906 1206.99 27.3906C1210.89 27.3906 1214.74 27.5488 1218.53 27.8652C1222.44 28.1816 1225.6 28.5508 1228.03 28.9727V56.5C1226.34 56.2891 1224.44 56.1309 1222.33 56.0254C1220.33 55.8145 1218.27 55.709 1216.16 55.709C1208.46 55.709 1202.77 57.4492 1199.08 60.9297C1195.49 64.4102 1193.7 69.5781 1193.7 76.4336V91.3047H1227.39V121.68H1194.49V259H1155.09Z"
      fill="#161616" />
    <path
      d="M1050.67 262.322C1034.21 262.322 1019.92 258.842 1007.79 251.881C995.666 244.814 986.227 234.795 979.477 221.822C972.832 208.744 969.51 193.188 969.51 175.152V174.836C969.51 156.906 972.885 141.455 979.635 128.482C986.385 115.404 995.824 105.385 1007.95 98.4238C1020.08 91.3574 1034.27 87.8242 1050.51 87.8242C1066.86 87.8242 1081.1 91.3574 1093.22 98.4238C1105.46 105.385 1114.95 115.352 1121.7 128.324C1128.45 141.297 1131.83 156.801 1131.83 174.836V175.152C1131.83 193.293 1128.45 208.902 1121.7 221.98C1115.06 234.953 1105.67 244.92 1093.54 251.881C1081.41 258.842 1067.12 262.322 1050.67 262.322ZM1050.83 230.523C1059.16 230.523 1066.38 228.361 1072.5 224.037C1078.62 219.713 1083.31 213.438 1086.58 205.211C1089.96 196.879 1091.64 186.859 1091.64 175.152V174.836C1091.64 163.234 1089.96 153.32 1086.58 145.094C1083.21 136.867 1078.41 130.592 1072.18 126.268C1066.07 121.943 1058.84 119.781 1050.51 119.781C1042.39 119.781 1035.22 121.943 1028.99 126.268C1022.88 130.592 1018.08 136.867 1014.6 145.094C1011.22 153.32 1009.54 163.234 1009.54 174.836V175.152C1009.54 186.859 1011.22 196.879 1014.6 205.211C1018.08 213.438 1022.88 219.713 1028.99 224.037C1035.22 228.361 1042.49 230.523 1050.83 230.523Z"
      fill="#161616" />
    <path
      d="M884.384 259V91.3047H923.618V120.256H924.567C927.099 110.131 931.687 102.221 938.331 96.5254C945.081 90.7246 953.308 87.8242 963.011 87.8242C965.437 87.8242 967.757 87.9824 969.972 88.2988C972.187 88.6152 974.032 88.9844 975.509 89.4062V125.002C973.927 124.369 971.659 123.842 968.706 123.42C965.858 122.998 962.747 122.787 959.372 122.787C951.989 122.787 945.608 124.316 940.229 127.375C934.851 130.328 930.737 134.705 927.89 140.506C925.042 146.307 923.618 153.373 923.618 161.705V259H884.384Z"
      fill="#161616" />
    <path
      d="M710.348 314.371V91.3047H749.582V120.256H750.531C753.801 113.506 757.914 107.758 762.871 103.012C767.934 98.1602 773.787 94.416 780.432 91.7793C787.182 89.1426 794.512 87.8242 802.422 87.8242C816.66 87.8242 828.947 91.3574 839.283 98.4238C849.725 105.385 857.74 115.404 863.33 128.482C869.025 141.561 871.873 157.117 871.873 175.152V175.311C871.873 193.24 869.025 208.744 863.33 221.822C857.74 234.795 849.777 244.814 839.441 251.881C829.211 258.842 817.082 262.322 803.055 262.322C795.145 262.322 787.762 261.057 780.906 258.525C774.156 255.994 768.197 252.355 763.029 247.609C757.861 242.863 753.695 237.221 750.531 230.682H749.582V314.371H710.348ZM790.873 229.258C799.311 229.258 806.588 227.043 812.705 222.613C818.822 218.184 823.516 211.961 826.785 203.945C830.16 195.824 831.848 186.279 831.848 175.311V175.152C831.848 163.867 830.16 154.217 826.785 146.201C823.516 138.08 818.77 131.857 812.547 127.533C806.43 123.209 799.205 121.047 790.873 121.047C782.752 121.047 775.58 123.262 769.357 127.691C763.135 132.121 758.23 138.396 754.645 146.518C751.164 154.533 749.424 164.078 749.424 175.152V175.311C749.424 186.279 751.164 195.824 754.645 203.945C758.23 211.961 763.135 218.184 769.357 222.613C775.58 227.043 782.752 229.258 790.873 229.258Z"
      fill="#161616" />
    <path d="M598.156 259V30.7129H637.549V259H598.156Z" fill="#161616" />
    <path
      d="M537.077 259V91.3047H576.47V259H537.077ZM556.695 67.2578C550.577 67.2578 545.409 65.1484 541.191 60.9297C536.972 56.7109 534.863 51.6484 534.863 45.7422C534.863 39.7305 536.972 34.668 541.191 30.5547C545.409 26.3359 550.577 24.2266 556.695 24.2266C562.917 24.2266 568.138 26.3359 572.357 30.5547C576.575 34.668 578.685 39.7305 578.685 45.7422C578.685 51.6484 576.575 56.7109 572.357 60.9297C568.138 65.1484 562.917 67.2578 556.695 67.2578Z"
      fill="#161616" />
    <path
      d="M426.323 261.848C415.248 261.848 405.44 259.738 396.897 255.52C388.459 251.195 381.867 245.236 377.121 237.643C372.481 229.943 370.16 221.137 370.16 211.223V210.906C370.16 196.035 375.698 184.275 386.772 175.627C397.951 166.873 413.666 161.916 433.916 160.756L497.988 156.801V182.904L439.453 186.543C429.75 187.176 422.315 189.496 417.147 193.504C411.979 197.512 409.395 202.838 409.395 209.482V209.641C409.395 216.496 411.979 221.928 417.147 225.936C422.42 229.838 429.381 231.789 438.03 231.789C445.623 231.789 452.373 230.26 458.28 227.201C464.291 224.143 469.037 219.977 472.518 214.703C475.998 209.43 477.738 203.471 477.738 196.826V146.518C477.738 138.08 475.049 131.436 469.67 126.584C464.397 121.627 456.75 119.148 446.731 119.148C437.449 119.148 430.014 121.152 424.424 125.16C418.834 129.062 415.354 134.125 413.983 140.348L413.666 141.771H377.28L377.438 139.873C378.281 129.959 381.604 121.1 387.405 113.295C393.205 105.385 401.221 99.1621 411.451 94.627C421.787 90.0918 434.022 87.8242 448.155 87.8242C462.182 87.8242 474.311 90.1445 484.541 94.7852C494.877 99.4258 502.84 105.912 508.43 114.244C514.125 122.576 516.973 132.385 516.973 143.67V259H477.738V233.213H476.789C473.625 239.014 469.512 244.076 464.449 248.4C459.387 252.725 453.586 256.047 447.047 258.367C440.614 260.688 433.705 261.848 426.323 261.848Z"
      fill="#161616" />
    <path
      d="M117.023 259V91.3047H156.257V118.199H157.206C160.687 109.023 166.54 101.693 174.767 96.209C182.993 90.6191 192.644 87.8242 203.718 87.8242C211.523 87.8242 218.536 89.1953 224.759 91.9375C230.982 94.5742 236.255 98.4238 240.579 103.486C245.009 108.443 248.226 114.508 250.23 121.68H251.021C253.763 114.719 257.665 108.76 262.728 103.803C267.896 98.7402 273.907 94.8379 280.763 92.0957C287.724 89.248 295.212 87.8242 303.228 87.8242C314.302 87.8242 323.9 90.1973 332.021 94.9434C340.247 99.584 346.628 106.123 351.163 114.561C355.804 122.893 358.124 132.701 358.124 143.986V259H318.732V153.637C318.732 143.301 316.148 135.285 310.98 129.59C305.812 123.895 298.376 121.047 288.673 121.047C282.345 121.047 276.755 122.523 271.904 125.477C267.157 128.324 263.413 132.332 260.671 137.5C258.034 142.668 256.716 148.627 256.716 155.377V259H218.431V151.58C218.431 142.088 215.741 134.652 210.363 129.273C205.089 123.789 197.865 121.047 188.689 121.047C182.361 121.047 176.771 122.576 171.919 125.635C167.068 128.693 163.218 132.859 160.37 138.133C157.628 143.406 156.257 149.471 156.257 156.326V259H117.023Z"
      fill="#161616" />
    <path
      d="M29.0493 262.322C12.2798 262.322 -2.16943 258.789 -14.2983 251.723C-26.3218 244.656 -35.5503 234.637 -41.9839 221.664C-48.4175 208.691 -51.6343 193.346 -51.6343 175.627V175.469C-51.6343 157.855 -48.4175 142.51 -41.9839 129.432C-35.4448 116.248 -26.3218 106.018 -14.6147 98.7402C-2.80225 91.4629 11.1196 87.8242 27.1509 87.8242C43.0767 87.8242 56.8403 91.3574 68.4419 98.4238C80.1489 105.385 89.1138 115.193 95.3364 127.85C101.665 140.506 104.829 155.271 104.829 172.146V184.803H-32.1753V158.541H86.0024L67.0181 183.062V167.875C67.0181 156.906 65.3306 147.783 61.9556 140.506C58.5806 133.229 53.9399 127.797 48.0337 124.211C42.1274 120.52 35.3247 118.674 27.6255 118.674C19.8208 118.674 12.8599 120.572 6.74268 124.369C0.730957 128.061 -4.01514 133.598 -7.49561 140.98C-10.8706 148.363 -12.5581 157.328 -12.5581 167.875V183.062C-12.5581 193.293 -10.8706 202.047 -7.49561 209.324C-4.01514 216.496 0.88916 222.033 7.21729 225.936C13.5454 229.732 21.0864 231.631 29.8403 231.631C36.3794 231.631 42.1274 230.629 47.0845 228.625C52.0415 226.516 56.1021 223.826 59.2661 220.557C62.5356 217.287 64.8032 213.754 66.0688 209.957L66.3853 208.85H103.088L102.772 210.59C101.401 217.023 98.8696 223.352 95.1782 229.574C91.4868 235.691 86.5298 241.229 80.3071 246.186C74.0845 251.143 66.7017 255.098 58.1587 258.051C49.6157 260.898 39.9126 262.322 29.0493 262.322Z"
      fill="#161616" />
  </g>
  <defs>
    <clipPath id="clip0_326_19">
      <rect width="1280" height="337" fill="white" />
    </clipPath>
  </defs>
</svg>
