<svg width="1280" height="337" viewBox="0 0 1280 337" fill="none" xmlns="http://www.w3.org/2000/svg">
<path d="M969.582 288V25.9756H1014.8V288H969.582Z" fill="#161616"/>
<path d="M899.476 288V95.522H944.69V288H899.476ZM921.992 67.9214C914.971 67.9214 909.039 65.5003 904.197 60.658C899.355 55.8158 896.934 50.0052 896.934 43.2261C896.934 36.3259 899.355 30.5152 904.197 25.7941C909.039 20.9519 914.971 18.5308 921.992 18.5308C929.135 18.5308 935.127 20.9519 939.969 25.7941C944.811 30.5152 947.232 36.3259 947.232 43.2261C947.232 50.0052 944.811 55.8158 939.969 60.658C935.127 65.5003 929.135 67.9214 921.992 67.9214Z" fill="#161616"/>
<path d="M772.353 291.269C759.643 291.269 748.384 288.848 738.579 284.005C728.894 279.042 721.329 272.203 715.881 263.487C710.555 254.649 707.891 244.541 707.891 233.162V232.799C707.891 215.73 714.247 202.232 726.958 192.306C739.789 182.258 757.827 176.569 781.069 175.237L854.611 170.698V200.659L787.425 204.835C776.288 205.562 767.753 208.225 761.822 212.825C755.89 217.425 752.924 223.538 752.924 231.165V231.346C752.924 239.215 755.89 245.449 761.822 250.049C767.874 254.528 775.864 256.768 785.79 256.768C794.506 256.768 802.254 255.013 809.033 251.502C815.933 247.991 821.381 243.21 825.376 237.157C829.37 231.104 831.368 224.265 831.368 216.638V158.895C831.368 149.21 828.281 141.584 822.107 136.015C816.054 130.326 807.278 127.481 795.778 127.481C785.125 127.481 776.59 129.781 770.174 134.381C763.758 138.86 759.764 144.671 758.19 151.813L757.827 153.447H716.063L716.244 151.268C717.213 139.889 721.026 129.72 727.684 120.762C734.342 111.683 743.542 104.541 755.285 99.3354C767.148 94.13 781.19 91.5273 797.412 91.5273C813.512 91.5273 827.434 94.1906 839.176 99.517C851.039 104.843 860.179 112.288 866.595 121.852C873.132 131.415 876.4 142.673 876.4 155.626V288H831.368V258.402H830.278C826.647 265.06 821.925 270.871 816.115 275.834C810.304 280.797 803.646 284.611 796.141 287.274C788.756 289.937 780.827 291.269 772.353 291.269Z" fill="#161616"/>
<path d="M417.344 288V95.5222H462.377V126.391H463.466C467.461 115.859 474.18 107.446 483.622 101.151C493.064 94.7353 504.141 91.5273 516.852 91.5273C525.81 91.5273 533.86 93.1011 541.002 96.2485C548.144 99.2749 554.197 103.693 559.16 109.504C564.245 115.194 567.937 122.154 570.237 130.386H571.145C574.292 122.396 578.771 115.557 584.582 109.867C590.514 104.057 597.414 99.5775 605.282 96.4301C613.272 93.1616 621.867 91.5273 631.067 91.5273C643.778 91.5273 654.794 94.2511 664.115 99.6986C673.558 105.025 680.882 112.53 686.087 122.215C691.413 131.778 694.077 143.036 694.077 155.989V288H648.862V167.066C648.862 155.202 645.897 146.002 639.965 139.465C634.033 132.928 625.499 129.66 614.362 129.66C607.098 129.66 600.682 131.355 595.114 134.744C589.666 138.013 585.369 142.613 582.221 148.544C579.195 154.476 577.682 161.316 577.682 169.063V288H533.739V164.705C533.739 153.81 530.652 145.276 524.478 139.102C518.425 132.807 510.133 129.66 499.601 129.66C492.338 129.66 485.922 131.415 480.353 134.926C474.785 138.436 470.366 143.218 467.098 149.271C463.95 155.324 462.377 162.284 462.377 170.153V288H417.344Z" fill="#161616"/>
<path d="M316.369 291.813C297.122 291.813 280.537 287.758 266.616 279.647C252.815 271.537 242.223 260.036 234.839 245.147C227.454 230.257 223.762 212.643 223.762 192.306V192.124C223.762 171.908 227.454 154.295 234.839 139.284C242.344 124.152 252.815 112.409 266.252 104.057C279.811 95.7038 295.79 91.5273 314.19 91.5273C332.47 91.5273 348.267 95.5827 361.584 103.693C375.021 111.683 385.31 122.941 392.453 137.468C399.716 151.995 403.348 168.942 403.348 188.311V202.838H246.097V172.695H381.739L359.949 200.84V183.408C359.949 170.819 358.012 160.347 354.139 151.995C350.265 143.642 344.938 137.407 338.159 133.291C331.38 129.055 323.572 126.936 314.735 126.936C305.777 126.936 297.787 129.115 290.766 133.473C283.866 137.71 278.418 144.065 274.424 152.539C270.55 161.013 268.613 171.303 268.613 183.408V200.84C268.613 212.583 270.55 222.63 274.424 230.983C278.418 239.215 284.048 245.57 291.311 250.049C298.574 254.407 307.23 256.586 317.277 256.586C324.783 256.586 331.38 255.436 337.07 253.136C342.759 250.715 347.42 247.628 351.052 243.876C354.804 240.123 357.407 236.067 358.86 231.709L359.223 230.438H401.35L400.987 232.436C399.413 239.82 396.508 247.084 392.271 254.226C388.034 261.247 382.345 267.602 375.202 273.292C368.06 278.982 359.586 283.521 349.781 286.911C339.975 290.179 328.838 291.813 316.369 291.813Z" fill="#161616"/>
</svg>
